<mxfile host="Electron" modified="2024-05-02T16:44:33.984Z" agent="Mozilla/5.0 (Windows NT 10.0; Win64; x64) AppleWebKit/537.36 (KHTML, like Gecko) draw.io/24.2.5 Chrome/120.0.6099.109 Electron/28.1.0 Safari/537.36" etag="4KmivcoFmKhSK4yuz7BW" version="24.2.5" type="device" pages="2">
  <diagram name="Before" id="GMu0QSGbvpEu1jrdlIAI">
    <mxGraphModel dx="724" dy="575" grid="1" gridSize="10" guides="1" tooltips="1" connect="1" arrows="1" fold="1" page="0" pageScale="1" pageWidth="827" pageHeight="1169" math="0" shadow="0">
      <root>
        <mxCell id="0" />
        <mxCell id="1" parent="0" />
        <mxCell id="p9YiVdpTm7VBxxbbTaUA-73" value="" style="rounded=1;whiteSpace=wrap;html=1;strokeColor=#1890f1;dashed=1;" parent="1" vertex="1">
          <mxGeometry x="239" y="340" width="231" height="110" as="geometry" />
        </mxCell>
        <mxCell id="AsgFPV5SbEIe7Opj8LEn-4" value="api.contoso.com" style="text;html=1;align=center;verticalAlign=middle;whiteSpace=wrap;rounded=0;labelBackgroundColor=none;fontColor=#000000;fontSize=14;fontFamily=segoe ui;fontStyle=1" parent="1" vertex="1">
          <mxGeometry x="240" y="320" width="240" height="20" as="geometry" />
        </mxCell>
        <mxCell id="RDYfgBnqXzUSTYOWZ7Q1-1" value="Azure API Management" style="text;html=1;align=center;verticalAlign=middle;whiteSpace=wrap;rounded=0;labelBackgroundColor=none;fontColor=#1890f1;fontSize=12;fontFamily=segoe ui;" vertex="1" parent="1">
          <mxGeometry x="239" y="450" width="230" height="20" as="geometry" />
        </mxCell>
        <mxCell id="RDYfgBnqXzUSTYOWZ7Q1-2" value="" style="shape=image;verticalLabelPosition=bottom;labelBackgroundColor=default;verticalAlign=top;aspect=fixed;imageAspect=0;image=data:image/svg+xml,PHN2ZyB4bWxucz0iaHR0cDovL3d3dy53My5vcmcvMjAwMC9zdmciIHhtbG5zOnhsaW5rPSJodHRwOi8vd3d3LnczLm9yZy8xOTk5L3hsaW5rIiBkYXRhLXR5cGU9IjMwMSIgaWQ9IkZ4U3ltYm9sMC0wNWMiIHJvbGU9InByZXNlbnRhdGlvbiIgY2xhc3M9IiIgZGF0YS1pc2xvZ289InRydWUiIHZpZXdCb3g9IjAgMCAxOCAxOCI+PGc+PHBhdGggZmlsbD0idXJsKCM4MGFkNTgxNC0yN2FhLTRmY2EtOTg1ZS02MWU2M2VlNjI3OTMpIiBkPSJNMTQuMTggNS44OWE0Ljg1IDQuODUgMCAwIDAtNC45NS00LjcxIDUgNSAwIDAgMC00Ljc1IDMuMjlBNC42MSA0LjYxIDAgMCAwIC41IDlhNC42NyA0LjY3IDAgMCAwIDQuNzkgNC41IDMgMyAwIDAgMCAuNDIgMGgxLjJhMS40NyAxLjQ3IDAgMCAxLS4xMS0uNTYgMS41MSAxLjUxIDAgMCAxIC4yLS43M0g1LjI5QTMuNDEgMy40MSAwIDAgMSAxLjc3IDlhMy4zMyAzLjMzIDAgMCAxIDIuOTEtMy4yN2wuNzYtLjEyLjI1LS43M2EzLjczIDMuNzMgMCAwIDEgMy41NC0yLjQzIDMuNiAzLjYgMCAwIDEgMy42OCAzLjQ1VjdsMS4wOS4xNWEyLjU5IDIuNTkgMCAwIDEgMi4yNiAyLjQ5IDIuNjMgMi42MyAwIDAgMS0yLjYyIDIuNTRoLTEuMjNBMy45MiAzLjkyIDAgMCAwIDguNTQgOWEuNjQuNjQgMCAxIDAgMCAxLjI3IDIuNjUgMi42NSAwIDAgMSAwIDUuMjkuNjQuNjQgMCAxIDAgMCAxLjI3IDMuOTIgMy45MiAwIDAgMCAzLjg3LTMuMzRoMS4wNWEuNjQuNjQgMCAwIDAgLjIgMCAzLjkxIDMuOTEgMCAwIDAgMy44NC0zLjg1IDMuODYgMy44NiAwIDAgMC0zLjMyLTMuNzV6Ii8+PHJlY3QgZmlsbD0idXJsKCMxOGJkYThkOS1lZDM2LTQyODYtYmQ3Ny05OGNiNzA1NDc4OTApIiByeD0iMS41NCIgaGVpZ2h0PSIzLjEyIiB3aWR0aD0iMy4xMiIgeT0iMTEuMzUiIHg9IjYuOCIvPjwvZz48ZGVmcz4mI3hhOzxsaW5lYXJHcmFkaWVudCBncmFkaWVudFVuaXRzPSJ1c2VyU3BhY2VPblVzZSIgeTI9IjEuMTgiIHgyPSI5IiB5MT0iMTYuODIiIHgxPSI5IiBpZD0iODBhZDU4MTQtMjdhYS00ZmNhLTk4NWUtNjFlNjNlZTYyNzkzIj48c3RvcCBzdG9wLWNvbG9yPSIjMTk4YWIzIiBvZmZzZXQ9IjAiLz48c3RvcCBzdG9wLWNvbG9yPSIjMWY5ZGM0IiBvZmZzZXQ9Ii4wOSIvPjxzdG9wIHN0b3AtY29sb3I9IiMyOGI1ZDkiIG9mZnNldD0iLjI0Ii8+PHN0b3Agc3RvcC1jb2xvcj0iIzJkYzZlOSIgb2Zmc2V0PSIuNCIvPjxzdG9wIHN0b3AtY29sb3I9IiMzMWQxZjIiIG9mZnNldD0iLjU3Ii8+PHN0b3Agc3RvcC1jb2xvcj0iIzMyZDRmNSIgb2Zmc2V0PSIuNzgiLz48L2xpbmVhckdyYWRpZW50PiYjeGE7PGxpbmVhckdyYWRpZW50IGdyYWRpZW50VW5pdHM9InVzZXJTcGFjZU9uVXNlIiB5Mj0iMTQuNDYiIHgyPSI4LjM2IiB5MT0iMTEuMzUiIHgxPSI4LjM2IiBpZD0iMThiZGE4ZDktZWQzNi00Mjg2LWJkNzctOThjYjcwNTQ3ODkwIj48c3RvcCBzdG9wLWNvbG9yPSIjYzY5YWViIiBvZmZzZXQ9IjAiLz48c3RvcCBzdG9wLWNvbG9yPSIjNmY0YmIyIiBvZmZzZXQ9IjEiLz48L2xpbmVhckdyYWRpZW50PiYjeGE7PC9kZWZzPiYjeGE7PC9zdmc+;" vertex="1" parent="1">
          <mxGeometry x="319.5" y="360" width="70" height="70" as="geometry" />
        </mxCell>
        <mxCell id="RDYfgBnqXzUSTYOWZ7Q1-13" style="rounded=0;orthogonalLoop=1;jettySize=auto;html=1;entryX=0;entryY=0.5;entryDx=0;entryDy=0;" edge="1" parent="1" source="RDYfgBnqXzUSTYOWZ7Q1-3" target="p9YiVdpTm7VBxxbbTaUA-73">
          <mxGeometry relative="1" as="geometry" />
        </mxCell>
        <mxCell id="RDYfgBnqXzUSTYOWZ7Q1-3" value="Contoso&lt;br&gt;API User" style="shape=umlActor;verticalLabelPosition=bottom;verticalAlign=top;html=1;outlineConnect=0;" vertex="1" parent="1">
          <mxGeometry x="100" y="365" width="30" height="60" as="geometry" />
        </mxCell>
        <mxCell id="RDYfgBnqXzUSTYOWZ7Q1-8" value="" style="group" vertex="1" connectable="0" parent="1">
          <mxGeometry x="500" y="390" width="90.53999999999996" height="40" as="geometry" />
        </mxCell>
        <mxCell id="p9YiVdpTm7VBxxbbTaUA-82" value="api2" style="text;html=1;align=left;verticalAlign=middle;whiteSpace=wrap;rounded=0;labelBackgroundColor=none;fontColor=#1890f1;fontSize=12;fontFamily=segoe ui;" parent="RDYfgBnqXzUSTYOWZ7Q1-8" vertex="1">
          <mxGeometry x="50" y="10" width="40.54" height="20" as="geometry" />
        </mxCell>
        <mxCell id="AsgFPV5SbEIe7Opj8LEn-2" value="" style="shape=image;verticalLabelPosition=bottom;labelBackgroundColor=default;verticalAlign=top;aspect=fixed;imageAspect=0;image=data:image/svg+xml,PHN2ZyB4bWxuczp4bGluaz0iaHR0cDovL3d3dy53My5vcmcvMTk5OS94bGluayIgeG1sbnM9Imh0dHA6Ly93d3cudzMub3JnLzIwMDAvc3ZnIiBkYXRhLXR5cGU9IjEiIGlkPSJGeFN5bWJvbDAtMDUwIiByb2xlPSJwcmVzZW50YXRpb24iIGNsYXNzPSIiIHZpZXdCb3g9IjAgMCAxOCAxOCI+PGc+PHBhdGggZmlsbD0idXJsKCNkNjJmNzQ4My03YjEwLTRjN2QtOTQ1Zi1hOGVhY2Q4ZDMwOWYpIiBkPSJNNi44IDcuNGEuMzM4LjMzOCAwIDAgMSAuMjc3LS4zMzNsMy40MTQtLjYzdi0yLjI5YS40NTguNDU4IDAgMCAwLS4zMS0uNDMzTDUuMjM5IDIuMDI3IDAgMi45OTR2Ny4xNDJsNS4yMzkgMS4xMjQgMS41Ni0uNjI5WiIvPjxwYXRoIGZpbGw9Im5vbmUiIGQ9Im01LjQzNSAxMS4xMzkgNC43MjItMS45YS40NTkuNDU5IDAgMCAwIC4yODctLjQyNVY0LjE5YS40NTcuNDU3IDAgMCAwLS4zMTEtLjQzM0w1LjM2NyAyLjEzOWEuNDM3LjQzNyAwIDAgMC0uMjIxLS4wMTdMLjM3MyAzYS4zNTIuMzUyIDAgMCAwLS4yODguMzQ2djYuNDdhLjM1LjM1IDAgMCAwIC4yNzkuMzQ0bDQuODE0IDFhLjQ0My40NDMgMCAwIDAgLjI1Ny0uMDIxWiIvPjxwYXRoIGZpbGw9IiMzNDFhNmUiIGQ9Ik0wIDIuOTk0djcuMTQybDUuMjkxIDEuMTI0VjIuMDI3Wk0yLjIyMyA5LjYuNzQgOS4zVjMuNzkxbDEuNDgzLS4yNDhabTIuMzEyLjQxNC0xLjctLjI3NVYzLjQ1MmwxLjctLjNaIi8+PHBhdGggZmlsbD0ibm9uZSIgZD0ibTEyLjk0NSAxNS44NTIgNC43MjItMS45YS40NTcuNDU3IDAgMCAwIC4yODctLjQyNVY4LjlhLjQ1Ny40NTcgMCAwIDAtLjMxMS0uNDMzbC00Ljc2Ni0xLjYxNmEuNDQ1LjQ0NSAwIDAgMC0uMjItLjAxNmwtNC43NzQuODczYS4zNTEuMzUxIDAgMCAwLS4yODguMzQ1djYuNDc2YS4zNTEuMzUxIDAgMCAwIC4yOC4zNDRsNC44MTMgMWEuNDQzLjQ0MyAwIDAgMCAuMjU3LS4wMjFaIi8+PHBhdGggZmlsbD0idXJsKCNkNjJmNzQ4My03YjEwLTRjN2QtOTQ1Zi1hOGVhY2Q4ZDMwYTApIiBkPSJtMTIuNzUgNi43NC01LjI0Ljk2N3Y3LjE0Mmw1LjI0IDEuMTI0IDQuOTYzLTJhLjQ1Ny40NTcgMCAwIDAgLjI4Ny0uNDI3VjguODZhLjQ1OC40NTggMCAwIDAtLjMxLS40MzNaIi8+PHBhdGggZmlsbD0iIzM0MWE2ZSIgZD0iTTcuNTEgNy43MDd2Ny4xNDJsNS4yOSAxLjEyNFY2Ljc0Wm0yLjIyMyA2LjYwNS0xLjQ4My0uM1Y4LjVsMS40ODMtLjI0OFptMi4zMTIuNDE0LTEuNy0uMjc1VjguMTY1bDEuNy0uM1oiLz48L2c+PGRlZnM+JiN4YTs8bGluZWFyR3JhZGllbnQgZ3JhZGllbnRVbml0cz0idXNlclNwYWNlT25Vc2UiIHkyPSI2LjY0NCIgeDI9IjEwLjQ5IiB5MT0iNi42NDQiIGlkPSJkNjJmNzQ4My03YjEwLTRjN2QtOTQ1Zi1hOGVhY2Q4ZDMwOWYiPjxzdG9wIHN0b3AtY29sb3I9IiNiNzdhZjQiIG9mZnNldD0iMCIvPjxzdG9wIHN0b3AtY29sb3I9IiM3NzNhZGMiIG9mZnNldD0iMSIvPjwvbGluZWFyR3JhZGllbnQ+JiN4YTs8bGluZWFyR3JhZGllbnQgZ3JhZGllbnRVbml0cz0idXNlclNwYWNlT25Vc2UiIHkyPSIxMS4zNTYiIHgyPSIxOCIgeTE9IjExLjM1NiIgeDE9IjcuNTEiIGlkPSJkNjJmNzQ4My03YjEwLTRjN2QtOTQ1Zi1hOGVhY2Q4ZDMwYTAiPjxzdG9wIHN0b3AtY29sb3I9IiNiNzdhZjQiIG9mZnNldD0iMCIvPjxzdG9wIHN0b3AtY29sb3I9IiM3NzNhZGMiIG9mZnNldD0iMSIvPjwvbGluZWFyR3JhZGllbnQ+JiN4YTs8L2RlZnM+JiN4YTs8L3N2Zz4=;" parent="RDYfgBnqXzUSTYOWZ7Q1-8" vertex="1">
          <mxGeometry width="40" height="40" as="geometry" />
        </mxCell>
        <mxCell id="RDYfgBnqXzUSTYOWZ7Q1-9" value="" style="group" vertex="1" connectable="0" parent="1">
          <mxGeometry x="500" y="350" width="90.53999999999996" height="40" as="geometry" />
        </mxCell>
        <mxCell id="RDYfgBnqXzUSTYOWZ7Q1-10" value="api1" style="text;html=1;align=left;verticalAlign=middle;whiteSpace=wrap;rounded=0;labelBackgroundColor=none;fontColor=#1890f1;fontSize=12;fontFamily=segoe ui;" vertex="1" parent="RDYfgBnqXzUSTYOWZ7Q1-9">
          <mxGeometry x="50" y="10" width="40.54" height="20" as="geometry" />
        </mxCell>
        <mxCell id="RDYfgBnqXzUSTYOWZ7Q1-11" value="" style="shape=image;verticalLabelPosition=bottom;labelBackgroundColor=default;verticalAlign=top;aspect=fixed;imageAspect=0;image=data:image/svg+xml,PHN2ZyB4bWxuczp4bGluaz0iaHR0cDovL3d3dy53My5vcmcvMTk5OS94bGluayIgeG1sbnM9Imh0dHA6Ly93d3cudzMub3JnLzIwMDAvc3ZnIiBkYXRhLXR5cGU9IjEiIGlkPSJGeFN5bWJvbDAtMDUwIiByb2xlPSJwcmVzZW50YXRpb24iIGNsYXNzPSIiIHZpZXdCb3g9IjAgMCAxOCAxOCI+PGc+PHBhdGggZmlsbD0idXJsKCNkNjJmNzQ4My03YjEwLTRjN2QtOTQ1Zi1hOGVhY2Q4ZDMwOWYpIiBkPSJNNi44IDcuNGEuMzM4LjMzOCAwIDAgMSAuMjc3LS4zMzNsMy40MTQtLjYzdi0yLjI5YS40NTguNDU4IDAgMCAwLS4zMS0uNDMzTDUuMjM5IDIuMDI3IDAgMi45OTR2Ny4xNDJsNS4yMzkgMS4xMjQgMS41Ni0uNjI5WiIvPjxwYXRoIGZpbGw9Im5vbmUiIGQ9Im01LjQzNSAxMS4xMzkgNC43MjItMS45YS40NTkuNDU5IDAgMCAwIC4yODctLjQyNVY0LjE5YS40NTcuNDU3IDAgMCAwLS4zMTEtLjQzM0w1LjM2NyAyLjEzOWEuNDM3LjQzNyAwIDAgMC0uMjIxLS4wMTdMLjM3MyAzYS4zNTIuMzUyIDAgMCAwLS4yODguMzQ2djYuNDdhLjM1LjM1IDAgMCAwIC4yNzkuMzQ0bDQuODE0IDFhLjQ0My40NDMgMCAwIDAgLjI1Ny0uMDIxWiIvPjxwYXRoIGZpbGw9IiMzNDFhNmUiIGQ9Ik0wIDIuOTk0djcuMTQybDUuMjkxIDEuMTI0VjIuMDI3Wk0yLjIyMyA5LjYuNzQgOS4zVjMuNzkxbDEuNDgzLS4yNDhabTIuMzEyLjQxNC0xLjctLjI3NVYzLjQ1MmwxLjctLjNaIi8+PHBhdGggZmlsbD0ibm9uZSIgZD0ibTEyLjk0NSAxNS44NTIgNC43MjItMS45YS40NTcuNDU3IDAgMCAwIC4yODctLjQyNVY4LjlhLjQ1Ny40NTcgMCAwIDAtLjMxMS0uNDMzbC00Ljc2Ni0xLjYxNmEuNDQ1LjQ0NSAwIDAgMC0uMjItLjAxNmwtNC43NzQuODczYS4zNTEuMzUxIDAgMCAwLS4yODguMzQ1djYuNDc2YS4zNTEuMzUxIDAgMCAwIC4yOC4zNDRsNC44MTMgMWEuNDQzLjQ0MyAwIDAgMCAuMjU3LS4wMjFaIi8+PHBhdGggZmlsbD0idXJsKCNkNjJmNzQ4My03YjEwLTRjN2QtOTQ1Zi1hOGVhY2Q4ZDMwYTApIiBkPSJtMTIuNzUgNi43NC01LjI0Ljk2N3Y3LjE0Mmw1LjI0IDEuMTI0IDQuOTYzLTJhLjQ1Ny40NTcgMCAwIDAgLjI4Ny0uNDI3VjguODZhLjQ1OC40NTggMCAwIDAtLjMxLS40MzNaIi8+PHBhdGggZmlsbD0iIzM0MWE2ZSIgZD0iTTcuNTEgNy43MDd2Ny4xNDJsNS4yOSAxLjEyNFY2Ljc0Wm0yLjIyMyA2LjYwNS0xLjQ4My0uM1Y4LjVsMS40ODMtLjI0OFptMi4zMTIuNDE0LTEuNy0uMjc1VjguMTY1bDEuNy0uM1oiLz48L2c+PGRlZnM+JiN4YTs8bGluZWFyR3JhZGllbnQgZ3JhZGllbnRVbml0cz0idXNlclNwYWNlT25Vc2UiIHkyPSI2LjY0NCIgeDI9IjEwLjQ5IiB5MT0iNi42NDQiIGlkPSJkNjJmNzQ4My03YjEwLTRjN2QtOTQ1Zi1hOGVhY2Q4ZDMwOWYiPjxzdG9wIHN0b3AtY29sb3I9IiNiNzdhZjQiIG9mZnNldD0iMCIvPjxzdG9wIHN0b3AtY29sb3I9IiM3NzNhZGMiIG9mZnNldD0iMSIvPjwvbGluZWFyR3JhZGllbnQ+JiN4YTs8bGluZWFyR3JhZGllbnQgZ3JhZGllbnRVbml0cz0idXNlclNwYWNlT25Vc2UiIHkyPSIxMS4zNTYiIHgyPSIxOCIgeTE9IjExLjM1NiIgeDE9IjcuNTEiIGlkPSJkNjJmNzQ4My03YjEwLTRjN2QtOTQ1Zi1hOGVhY2Q4ZDMwYTAiPjxzdG9wIHN0b3AtY29sb3I9IiNiNzdhZjQiIG9mZnNldD0iMCIvPjxzdG9wIHN0b3AtY29sb3I9IiM3NzNhZGMiIG9mZnNldD0iMSIvPjwvbGluZWFyR3JhZGllbnQ+JiN4YTs8L2RlZnM+JiN4YTs8L3N2Zz4=;" vertex="1" parent="RDYfgBnqXzUSTYOWZ7Q1-9">
          <mxGeometry width="40" height="40" as="geometry" />
        </mxCell>
        <mxCell id="RDYfgBnqXzUSTYOWZ7Q1-15" value="Before" style="text;html=1;align=center;verticalAlign=middle;whiteSpace=wrap;rounded=0;fillColor=#dae8fc;strokeColor=#6c8ebf;fontSize=14;fontStyle=1" vertex="1" parent="1">
          <mxGeometry x="80" y="270" width="520" height="30" as="geometry" />
        </mxCell>
        <mxCell id="RDYfgBnqXzUSTYOWZ7Q1-17" value="" style="rounded=1;whiteSpace=wrap;html=1;strokeColor=#1890f1;dashed=1;" vertex="1" parent="1">
          <mxGeometry x="239" y="500" width="231" height="110" as="geometry" />
        </mxCell>
        <mxCell id="RDYfgBnqXzUSTYOWZ7Q1-18" value="api.litware.com" style="text;html=1;align=center;verticalAlign=middle;whiteSpace=wrap;rounded=0;labelBackgroundColor=none;fontColor=#000000;fontSize=14;fontFamily=segoe ui;fontStyle=1" vertex="1" parent="1">
          <mxGeometry x="240" y="480" width="240" height="20" as="geometry" />
        </mxCell>
        <mxCell id="RDYfgBnqXzUSTYOWZ7Q1-19" value="Azure API Management" style="text;html=1;align=center;verticalAlign=middle;whiteSpace=wrap;rounded=0;labelBackgroundColor=none;fontColor=#1890f1;fontSize=12;fontFamily=segoe ui;" vertex="1" parent="1">
          <mxGeometry x="239" y="610" width="230" height="20" as="geometry" />
        </mxCell>
        <mxCell id="RDYfgBnqXzUSTYOWZ7Q1-20" value="" style="shape=image;verticalLabelPosition=bottom;labelBackgroundColor=default;verticalAlign=top;aspect=fixed;imageAspect=0;image=data:image/svg+xml,PHN2ZyB4bWxucz0iaHR0cDovL3d3dy53My5vcmcvMjAwMC9zdmciIHhtbG5zOnhsaW5rPSJodHRwOi8vd3d3LnczLm9yZy8xOTk5L3hsaW5rIiBkYXRhLXR5cGU9IjMwMSIgaWQ9IkZ4U3ltYm9sMC0wNWMiIHJvbGU9InByZXNlbnRhdGlvbiIgY2xhc3M9IiIgZGF0YS1pc2xvZ289InRydWUiIHZpZXdCb3g9IjAgMCAxOCAxOCI+PGc+PHBhdGggZmlsbD0idXJsKCM4MGFkNTgxNC0yN2FhLTRmY2EtOTg1ZS02MWU2M2VlNjI3OTMpIiBkPSJNMTQuMTggNS44OWE0Ljg1IDQuODUgMCAwIDAtNC45NS00LjcxIDUgNSAwIDAgMC00Ljc1IDMuMjlBNC42MSA0LjYxIDAgMCAwIC41IDlhNC42NyA0LjY3IDAgMCAwIDQuNzkgNC41IDMgMyAwIDAgMCAuNDIgMGgxLjJhMS40NyAxLjQ3IDAgMCAxLS4xMS0uNTYgMS41MSAxLjUxIDAgMCAxIC4yLS43M0g1LjI5QTMuNDEgMy40MSAwIDAgMSAxLjc3IDlhMy4zMyAzLjMzIDAgMCAxIDIuOTEtMy4yN2wuNzYtLjEyLjI1LS43M2EzLjczIDMuNzMgMCAwIDEgMy41NC0yLjQzIDMuNiAzLjYgMCAwIDEgMy42OCAzLjQ1VjdsMS4wOS4xNWEyLjU5IDIuNTkgMCAwIDEgMi4yNiAyLjQ5IDIuNjMgMi42MyAwIDAgMS0yLjYyIDIuNTRoLTEuMjNBMy45MiAzLjkyIDAgMCAwIDguNTQgOWEuNjQuNjQgMCAxIDAgMCAxLjI3IDIuNjUgMi42NSAwIDAgMSAwIDUuMjkuNjQuNjQgMCAxIDAgMCAxLjI3IDMuOTIgMy45MiAwIDAgMCAzLjg3LTMuMzRoMS4wNWEuNjQuNjQgMCAwIDAgLjIgMCAzLjkxIDMuOTEgMCAwIDAgMy44NC0zLjg1IDMuODYgMy44NiAwIDAgMC0zLjMyLTMuNzV6Ii8+PHJlY3QgZmlsbD0idXJsKCMxOGJkYThkOS1lZDM2LTQyODYtYmQ3Ny05OGNiNzA1NDc4OTApIiByeD0iMS41NCIgaGVpZ2h0PSIzLjEyIiB3aWR0aD0iMy4xMiIgeT0iMTEuMzUiIHg9IjYuOCIvPjwvZz48ZGVmcz4mI3hhOzxsaW5lYXJHcmFkaWVudCBncmFkaWVudFVuaXRzPSJ1c2VyU3BhY2VPblVzZSIgeTI9IjEuMTgiIHgyPSI5IiB5MT0iMTYuODIiIHgxPSI5IiBpZD0iODBhZDU4MTQtMjdhYS00ZmNhLTk4NWUtNjFlNjNlZTYyNzkzIj48c3RvcCBzdG9wLWNvbG9yPSIjMTk4YWIzIiBvZmZzZXQ9IjAiLz48c3RvcCBzdG9wLWNvbG9yPSIjMWY5ZGM0IiBvZmZzZXQ9Ii4wOSIvPjxzdG9wIHN0b3AtY29sb3I9IiMyOGI1ZDkiIG9mZnNldD0iLjI0Ii8+PHN0b3Agc3RvcC1jb2xvcj0iIzJkYzZlOSIgb2Zmc2V0PSIuNCIvPjxzdG9wIHN0b3AtY29sb3I9IiMzMWQxZjIiIG9mZnNldD0iLjU3Ii8+PHN0b3Agc3RvcC1jb2xvcj0iIzMyZDRmNSIgb2Zmc2V0PSIuNzgiLz48L2xpbmVhckdyYWRpZW50PiYjeGE7PGxpbmVhckdyYWRpZW50IGdyYWRpZW50VW5pdHM9InVzZXJTcGFjZU9uVXNlIiB5Mj0iMTQuNDYiIHgyPSI4LjM2IiB5MT0iMTEuMzUiIHgxPSI4LjM2IiBpZD0iMThiZGE4ZDktZWQzNi00Mjg2LWJkNzctOThjYjcwNTQ3ODkwIj48c3RvcCBzdG9wLWNvbG9yPSIjYzY5YWViIiBvZmZzZXQ9IjAiLz48c3RvcCBzdG9wLWNvbG9yPSIjNmY0YmIyIiBvZmZzZXQ9IjEiLz48L2xpbmVhckdyYWRpZW50PiYjeGE7PC9kZWZzPiYjeGE7PC9zdmc+;" vertex="1" parent="1">
          <mxGeometry x="319.5" y="520" width="70" height="70" as="geometry" />
        </mxCell>
        <mxCell id="RDYfgBnqXzUSTYOWZ7Q1-21" style="rounded=0;orthogonalLoop=1;jettySize=auto;html=1;entryX=0;entryY=0.5;entryDx=0;entryDy=0;" edge="1" parent="1" source="RDYfgBnqXzUSTYOWZ7Q1-22" target="RDYfgBnqXzUSTYOWZ7Q1-17">
          <mxGeometry relative="1" as="geometry" />
        </mxCell>
        <mxCell id="RDYfgBnqXzUSTYOWZ7Q1-22" value="Litware&lt;br&gt;API User" style="shape=umlActor;verticalLabelPosition=bottom;verticalAlign=top;html=1;outlineConnect=0;" vertex="1" parent="1">
          <mxGeometry x="100" y="525" width="30" height="60" as="geometry" />
        </mxCell>
        <mxCell id="RDYfgBnqXzUSTYOWZ7Q1-23" value="" style="group" vertex="1" connectable="0" parent="1">
          <mxGeometry x="500" y="550" width="90.53999999999996" height="40" as="geometry" />
        </mxCell>
        <mxCell id="RDYfgBnqXzUSTYOWZ7Q1-24" value="api3" style="text;html=1;align=left;verticalAlign=middle;whiteSpace=wrap;rounded=0;labelBackgroundColor=none;fontColor=#1890f1;fontSize=12;fontFamily=segoe ui;" vertex="1" parent="RDYfgBnqXzUSTYOWZ7Q1-23">
          <mxGeometry x="50" y="10" width="40.54" height="20" as="geometry" />
        </mxCell>
        <mxCell id="RDYfgBnqXzUSTYOWZ7Q1-25" value="" style="shape=image;verticalLabelPosition=bottom;labelBackgroundColor=default;verticalAlign=top;aspect=fixed;imageAspect=0;image=data:image/svg+xml,PHN2ZyB4bWxuczp4bGluaz0iaHR0cDovL3d3dy53My5vcmcvMTk5OS94bGluayIgeG1sbnM9Imh0dHA6Ly93d3cudzMub3JnLzIwMDAvc3ZnIiBkYXRhLXR5cGU9IjEiIGlkPSJGeFN5bWJvbDAtMDUwIiByb2xlPSJwcmVzZW50YXRpb24iIGNsYXNzPSIiIHZpZXdCb3g9IjAgMCAxOCAxOCI+PGc+PHBhdGggZmlsbD0idXJsKCNkNjJmNzQ4My03YjEwLTRjN2QtOTQ1Zi1hOGVhY2Q4ZDMwOWYpIiBkPSJNNi44IDcuNGEuMzM4LjMzOCAwIDAgMSAuMjc3LS4zMzNsMy40MTQtLjYzdi0yLjI5YS40NTguNDU4IDAgMCAwLS4zMS0uNDMzTDUuMjM5IDIuMDI3IDAgMi45OTR2Ny4xNDJsNS4yMzkgMS4xMjQgMS41Ni0uNjI5WiIvPjxwYXRoIGZpbGw9Im5vbmUiIGQ9Im01LjQzNSAxMS4xMzkgNC43MjItMS45YS40NTkuNDU5IDAgMCAwIC4yODctLjQyNVY0LjE5YS40NTcuNDU3IDAgMCAwLS4zMTEtLjQzM0w1LjM2NyAyLjEzOWEuNDM3LjQzNyAwIDAgMC0uMjIxLS4wMTdMLjM3MyAzYS4zNTIuMzUyIDAgMCAwLS4yODguMzQ2djYuNDdhLjM1LjM1IDAgMCAwIC4yNzkuMzQ0bDQuODE0IDFhLjQ0My40NDMgMCAwIDAgLjI1Ny0uMDIxWiIvPjxwYXRoIGZpbGw9IiMzNDFhNmUiIGQ9Ik0wIDIuOTk0djcuMTQybDUuMjkxIDEuMTI0VjIuMDI3Wk0yLjIyMyA5LjYuNzQgOS4zVjMuNzkxbDEuNDgzLS4yNDhabTIuMzEyLjQxNC0xLjctLjI3NVYzLjQ1MmwxLjctLjNaIi8+PHBhdGggZmlsbD0ibm9uZSIgZD0ibTEyLjk0NSAxNS44NTIgNC43MjItMS45YS40NTcuNDU3IDAgMCAwIC4yODctLjQyNVY4LjlhLjQ1Ny40NTcgMCAwIDAtLjMxMS0uNDMzbC00Ljc2Ni0xLjYxNmEuNDQ1LjQ0NSAwIDAgMC0uMjItLjAxNmwtNC43NzQuODczYS4zNTEuMzUxIDAgMCAwLS4yODguMzQ1djYuNDc2YS4zNTEuMzUxIDAgMCAwIC4yOC4zNDRsNC44MTMgMWEuNDQzLjQ0MyAwIDAgMCAuMjU3LS4wMjFaIi8+PHBhdGggZmlsbD0idXJsKCNkNjJmNzQ4My03YjEwLTRjN2QtOTQ1Zi1hOGVhY2Q4ZDMwYTApIiBkPSJtMTIuNzUgNi43NC01LjI0Ljk2N3Y3LjE0Mmw1LjI0IDEuMTI0IDQuOTYzLTJhLjQ1Ny40NTcgMCAwIDAgLjI4Ny0uNDI3VjguODZhLjQ1OC40NTggMCAwIDAtLjMxLS40MzNaIi8+PHBhdGggZmlsbD0iIzM0MWE2ZSIgZD0iTTcuNTEgNy43MDd2Ny4xNDJsNS4yOSAxLjEyNFY2Ljc0Wm0yLjIyMyA2LjYwNS0xLjQ4My0uM1Y4LjVsMS40ODMtLjI0OFptMi4zMTIuNDE0LTEuNy0uMjc1VjguMTY1bDEuNy0uM1oiLz48L2c+PGRlZnM+JiN4YTs8bGluZWFyR3JhZGllbnQgZ3JhZGllbnRVbml0cz0idXNlclNwYWNlT25Vc2UiIHkyPSI2LjY0NCIgeDI9IjEwLjQ5IiB5MT0iNi42NDQiIGlkPSJkNjJmNzQ4My03YjEwLTRjN2QtOTQ1Zi1hOGVhY2Q4ZDMwOWYiPjxzdG9wIHN0b3AtY29sb3I9IiNiNzdhZjQiIG9mZnNldD0iMCIvPjxzdG9wIHN0b3AtY29sb3I9IiM3NzNhZGMiIG9mZnNldD0iMSIvPjwvbGluZWFyR3JhZGllbnQ+JiN4YTs8bGluZWFyR3JhZGllbnQgZ3JhZGllbnRVbml0cz0idXNlclNwYWNlT25Vc2UiIHkyPSIxMS4zNTYiIHgyPSIxOCIgeTE9IjExLjM1NiIgeDE9IjcuNTEiIGlkPSJkNjJmNzQ4My03YjEwLTRjN2QtOTQ1Zi1hOGVhY2Q4ZDMwYTAiPjxzdG9wIHN0b3AtY29sb3I9IiNiNzdhZjQiIG9mZnNldD0iMCIvPjxzdG9wIHN0b3AtY29sb3I9IiM3NzNhZGMiIG9mZnNldD0iMSIvPjwvbGluZWFyR3JhZGllbnQ+JiN4YTs8L2RlZnM+JiN4YTs8L3N2Zz4=;" vertex="1" parent="RDYfgBnqXzUSTYOWZ7Q1-23">
          <mxGeometry width="40" height="40" as="geometry" />
        </mxCell>
        <mxCell id="RDYfgBnqXzUSTYOWZ7Q1-26" value="" style="group" vertex="1" connectable="0" parent="1">
          <mxGeometry x="500" y="510" width="90.53999999999996" height="40" as="geometry" />
        </mxCell>
        <mxCell id="RDYfgBnqXzUSTYOWZ7Q1-27" value="api3" style="text;html=1;align=left;verticalAlign=middle;whiteSpace=wrap;rounded=0;labelBackgroundColor=none;fontColor=#1890f1;fontSize=12;fontFamily=segoe ui;" vertex="1" parent="RDYfgBnqXzUSTYOWZ7Q1-26">
          <mxGeometry x="50" y="10" width="40.54" height="20" as="geometry" />
        </mxCell>
        <mxCell id="RDYfgBnqXzUSTYOWZ7Q1-28" value="" style="shape=image;verticalLabelPosition=bottom;labelBackgroundColor=default;verticalAlign=top;aspect=fixed;imageAspect=0;image=data:image/svg+xml,PHN2ZyB4bWxuczp4bGluaz0iaHR0cDovL3d3dy53My5vcmcvMTk5OS94bGluayIgeG1sbnM9Imh0dHA6Ly93d3cudzMub3JnLzIwMDAvc3ZnIiBkYXRhLXR5cGU9IjEiIGlkPSJGeFN5bWJvbDAtMDUwIiByb2xlPSJwcmVzZW50YXRpb24iIGNsYXNzPSIiIHZpZXdCb3g9IjAgMCAxOCAxOCI+PGc+PHBhdGggZmlsbD0idXJsKCNkNjJmNzQ4My03YjEwLTRjN2QtOTQ1Zi1hOGVhY2Q4ZDMwOWYpIiBkPSJNNi44IDcuNGEuMzM4LjMzOCAwIDAgMSAuMjc3LS4zMzNsMy40MTQtLjYzdi0yLjI5YS40NTguNDU4IDAgMCAwLS4zMS0uNDMzTDUuMjM5IDIuMDI3IDAgMi45OTR2Ny4xNDJsNS4yMzkgMS4xMjQgMS41Ni0uNjI5WiIvPjxwYXRoIGZpbGw9Im5vbmUiIGQ9Im01LjQzNSAxMS4xMzkgNC43MjItMS45YS40NTkuNDU5IDAgMCAwIC4yODctLjQyNVY0LjE5YS40NTcuNDU3IDAgMCAwLS4zMTEtLjQzM0w1LjM2NyAyLjEzOWEuNDM3LjQzNyAwIDAgMC0uMjIxLS4wMTdMLjM3MyAzYS4zNTIuMzUyIDAgMCAwLS4yODguMzQ2djYuNDdhLjM1LjM1IDAgMCAwIC4yNzkuMzQ0bDQuODE0IDFhLjQ0My40NDMgMCAwIDAgLjI1Ny0uMDIxWiIvPjxwYXRoIGZpbGw9IiMzNDFhNmUiIGQ9Ik0wIDIuOTk0djcuMTQybDUuMjkxIDEuMTI0VjIuMDI3Wk0yLjIyMyA5LjYuNzQgOS4zVjMuNzkxbDEuNDgzLS4yNDhabTIuMzEyLjQxNC0xLjctLjI3NVYzLjQ1MmwxLjctLjNaIi8+PHBhdGggZmlsbD0ibm9uZSIgZD0ibTEyLjk0NSAxNS44NTIgNC43MjItMS45YS40NTcuNDU3IDAgMCAwIC4yODctLjQyNVY4LjlhLjQ1Ny40NTcgMCAwIDAtLjMxMS0uNDMzbC00Ljc2Ni0xLjYxNmEuNDQ1LjQ0NSAwIDAgMC0uMjItLjAxNmwtNC43NzQuODczYS4zNTEuMzUxIDAgMCAwLS4yODguMzQ1djYuNDc2YS4zNTEuMzUxIDAgMCAwIC4yOC4zNDRsNC44MTMgMWEuNDQzLjQ0MyAwIDAgMCAuMjU3LS4wMjFaIi8+PHBhdGggZmlsbD0idXJsKCNkNjJmNzQ4My03YjEwLTRjN2QtOTQ1Zi1hOGVhY2Q4ZDMwYTApIiBkPSJtMTIuNzUgNi43NC01LjI0Ljk2N3Y3LjE0Mmw1LjI0IDEuMTI0IDQuOTYzLTJhLjQ1Ny40NTcgMCAwIDAgLjI4Ny0uNDI3VjguODZhLjQ1OC40NTggMCAwIDAtLjMxLS40MzNaIi8+PHBhdGggZmlsbD0iIzM0MWE2ZSIgZD0iTTcuNTEgNy43MDd2Ny4xNDJsNS4yOSAxLjEyNFY2Ljc0Wm0yLjIyMyA2LjYwNS0xLjQ4My0uM1Y4LjVsMS40ODMtLjI0OFptMi4zMTIuNDE0LTEuNy0uMjc1VjguMTY1bDEuNy0uM1oiLz48L2c+PGRlZnM+JiN4YTs8bGluZWFyR3JhZGllbnQgZ3JhZGllbnRVbml0cz0idXNlclNwYWNlT25Vc2UiIHkyPSI2LjY0NCIgeDI9IjEwLjQ5IiB5MT0iNi42NDQiIGlkPSJkNjJmNzQ4My03YjEwLTRjN2QtOTQ1Zi1hOGVhY2Q4ZDMwOWYiPjxzdG9wIHN0b3AtY29sb3I9IiNiNzdhZjQiIG9mZnNldD0iMCIvPjxzdG9wIHN0b3AtY29sb3I9IiM3NzNhZGMiIG9mZnNldD0iMSIvPjwvbGluZWFyR3JhZGllbnQ+JiN4YTs8bGluZWFyR3JhZGllbnQgZ3JhZGllbnRVbml0cz0idXNlclNwYWNlT25Vc2UiIHkyPSIxMS4zNTYiIHgyPSIxOCIgeTE9IjExLjM1NiIgeDE9IjcuNTEiIGlkPSJkNjJmNzQ4My03YjEwLTRjN2QtOTQ1Zi1hOGVhY2Q4ZDMwYTAiPjxzdG9wIHN0b3AtY29sb3I9IiNiNzdhZjQiIG9mZnNldD0iMCIvPjxzdG9wIHN0b3AtY29sb3I9IiM3NzNhZGMiIG9mZnNldD0iMSIvPjwvbGluZWFyR3JhZGllbnQ+JiN4YTs8L2RlZnM+JiN4YTs8L3N2Zz4=;" vertex="1" parent="RDYfgBnqXzUSTYOWZ7Q1-26">
          <mxGeometry width="40" height="40" as="geometry" />
        </mxCell>
      </root>
    </mxGraphModel>
  </diagram>
  <diagram id="hLfnZEfCcq6127PfEtSk" name="After">
    <mxGraphModel dx="676" dy="537" grid="1" gridSize="10" guides="1" tooltips="1" connect="1" arrows="1" fold="1" page="0" pageScale="1" pageWidth="827" pageHeight="1169" math="0" shadow="0">
      <root>
        <mxCell id="0" />
        <mxCell id="1" parent="0" />
        <mxCell id="lnF6oPftVDVQoWuEvHUH-1" value="" style="rounded=1;whiteSpace=wrap;html=1;strokeColor=#1890f1;dashed=1;" vertex="1" parent="1">
          <mxGeometry x="239" y="340" width="231" height="110" as="geometry" />
        </mxCell>
        <mxCell id="lnF6oPftVDVQoWuEvHUH-2" value="api.contoso.com&lt;div&gt;api.litware.com&lt;br&gt;&lt;/div&gt;" style="text;html=1;align=center;verticalAlign=middle;whiteSpace=wrap;rounded=0;labelBackgroundColor=none;fontColor=#000000;fontSize=14;fontFamily=segoe ui;fontStyle=1" vertex="1" parent="1">
          <mxGeometry x="240" y="300" width="240" height="40" as="geometry" />
        </mxCell>
        <mxCell id="lnF6oPftVDVQoWuEvHUH-3" value="Azure API Management" style="text;html=1;align=center;verticalAlign=middle;whiteSpace=wrap;rounded=0;labelBackgroundColor=none;fontColor=#1890f1;fontSize=12;fontFamily=segoe ui;" vertex="1" parent="1">
          <mxGeometry x="239" y="450" width="230" height="20" as="geometry" />
        </mxCell>
        <mxCell id="lnF6oPftVDVQoWuEvHUH-4" value="" style="shape=image;verticalLabelPosition=bottom;labelBackgroundColor=default;verticalAlign=top;aspect=fixed;imageAspect=0;image=data:image/svg+xml,PHN2ZyB4bWxucz0iaHR0cDovL3d3dy53My5vcmcvMjAwMC9zdmciIHhtbG5zOnhsaW5rPSJodHRwOi8vd3d3LnczLm9yZy8xOTk5L3hsaW5rIiBkYXRhLXR5cGU9IjMwMSIgaWQ9IkZ4U3ltYm9sMC0wNWMiIHJvbGU9InByZXNlbnRhdGlvbiIgY2xhc3M9IiIgZGF0YS1pc2xvZ289InRydWUiIHZpZXdCb3g9IjAgMCAxOCAxOCI+PGc+PHBhdGggZmlsbD0idXJsKCM4MGFkNTgxNC0yN2FhLTRmY2EtOTg1ZS02MWU2M2VlNjI3OTMpIiBkPSJNMTQuMTggNS44OWE0Ljg1IDQuODUgMCAwIDAtNC45NS00LjcxIDUgNSAwIDAgMC00Ljc1IDMuMjlBNC42MSA0LjYxIDAgMCAwIC41IDlhNC42NyA0LjY3IDAgMCAwIDQuNzkgNC41IDMgMyAwIDAgMCAuNDIgMGgxLjJhMS40NyAxLjQ3IDAgMCAxLS4xMS0uNTYgMS41MSAxLjUxIDAgMCAxIC4yLS43M0g1LjI5QTMuNDEgMy40MSAwIDAgMSAxLjc3IDlhMy4zMyAzLjMzIDAgMCAxIDIuOTEtMy4yN2wuNzYtLjEyLjI1LS43M2EzLjczIDMuNzMgMCAwIDEgMy41NC0yLjQzIDMuNiAzLjYgMCAwIDEgMy42OCAzLjQ1VjdsMS4wOS4xNWEyLjU5IDIuNTkgMCAwIDEgMi4yNiAyLjQ5IDIuNjMgMi42MyAwIDAgMS0yLjYyIDIuNTRoLTEuMjNBMy45MiAzLjkyIDAgMCAwIDguNTQgOWEuNjQuNjQgMCAxIDAgMCAxLjI3IDIuNjUgMi42NSAwIDAgMSAwIDUuMjkuNjQuNjQgMCAxIDAgMCAxLjI3IDMuOTIgMy45MiAwIDAgMCAzLjg3LTMuMzRoMS4wNWEuNjQuNjQgMCAwIDAgLjIgMCAzLjkxIDMuOTEgMCAwIDAgMy44NC0zLjg1IDMuODYgMy44NiAwIDAgMC0zLjMyLTMuNzV6Ii8+PHJlY3QgZmlsbD0idXJsKCMxOGJkYThkOS1lZDM2LTQyODYtYmQ3Ny05OGNiNzA1NDc4OTApIiByeD0iMS41NCIgaGVpZ2h0PSIzLjEyIiB3aWR0aD0iMy4xMiIgeT0iMTEuMzUiIHg9IjYuOCIvPjwvZz48ZGVmcz4mI3hhOzxsaW5lYXJHcmFkaWVudCBncmFkaWVudFVuaXRzPSJ1c2VyU3BhY2VPblVzZSIgeTI9IjEuMTgiIHgyPSI5IiB5MT0iMTYuODIiIHgxPSI5IiBpZD0iODBhZDU4MTQtMjdhYS00ZmNhLTk4NWUtNjFlNjNlZTYyNzkzIj48c3RvcCBzdG9wLWNvbG9yPSIjMTk4YWIzIiBvZmZzZXQ9IjAiLz48c3RvcCBzdG9wLWNvbG9yPSIjMWY5ZGM0IiBvZmZzZXQ9Ii4wOSIvPjxzdG9wIHN0b3AtY29sb3I9IiMyOGI1ZDkiIG9mZnNldD0iLjI0Ii8+PHN0b3Agc3RvcC1jb2xvcj0iIzJkYzZlOSIgb2Zmc2V0PSIuNCIvPjxzdG9wIHN0b3AtY29sb3I9IiMzMWQxZjIiIG9mZnNldD0iLjU3Ii8+PHN0b3Agc3RvcC1jb2xvcj0iIzMyZDRmNSIgb2Zmc2V0PSIuNzgiLz48L2xpbmVhckdyYWRpZW50PiYjeGE7PGxpbmVhckdyYWRpZW50IGdyYWRpZW50VW5pdHM9InVzZXJTcGFjZU9uVXNlIiB5Mj0iMTQuNDYiIHgyPSI4LjM2IiB5MT0iMTEuMzUiIHgxPSI4LjM2IiBpZD0iMThiZGE4ZDktZWQzNi00Mjg2LWJkNzctOThjYjcwNTQ3ODkwIj48c3RvcCBzdG9wLWNvbG9yPSIjYzY5YWViIiBvZmZzZXQ9IjAiLz48c3RvcCBzdG9wLWNvbG9yPSIjNmY0YmIyIiBvZmZzZXQ9IjEiLz48L2xpbmVhckdyYWRpZW50PiYjeGE7PC9kZWZzPiYjeGE7PC9zdmc+;" vertex="1" parent="1">
          <mxGeometry x="319.5" y="360" width="70" height="70" as="geometry" />
        </mxCell>
        <mxCell id="lnF6oPftVDVQoWuEvHUH-5" style="rounded=0;orthogonalLoop=1;jettySize=auto;html=1;entryX=0;entryY=0.5;entryDx=0;entryDy=0;" edge="1" parent="1" source="lnF6oPftVDVQoWuEvHUH-6" target="lnF6oPftVDVQoWuEvHUH-1">
          <mxGeometry relative="1" as="geometry" />
        </mxCell>
        <mxCell id="lnF6oPftVDVQoWuEvHUH-6" value="Contoso&lt;br&gt;API User" style="shape=umlActor;verticalLabelPosition=bottom;verticalAlign=top;html=1;outlineConnect=0;" vertex="1" parent="1">
          <mxGeometry x="100" y="365" width="30" height="60" as="geometry" />
        </mxCell>
        <mxCell id="lnF6oPftVDVQoWuEvHUH-7" value="" style="group" vertex="1" connectable="0" parent="1">
          <mxGeometry x="500" y="360" width="90.53999999999996" height="40" as="geometry" />
        </mxCell>
        <mxCell id="lnF6oPftVDVQoWuEvHUH-8" value="api2" style="text;html=1;align=left;verticalAlign=middle;whiteSpace=wrap;rounded=0;labelBackgroundColor=none;fontColor=#1890f1;fontSize=12;fontFamily=segoe ui;" vertex="1" parent="lnF6oPftVDVQoWuEvHUH-7">
          <mxGeometry x="50" y="10" width="40.54" height="20" as="geometry" />
        </mxCell>
        <mxCell id="lnF6oPftVDVQoWuEvHUH-9" value="" style="shape=image;verticalLabelPosition=bottom;labelBackgroundColor=default;verticalAlign=top;aspect=fixed;imageAspect=0;image=data:image/svg+xml,PHN2ZyB4bWxuczp4bGluaz0iaHR0cDovL3d3dy53My5vcmcvMTk5OS94bGluayIgeG1sbnM9Imh0dHA6Ly93d3cudzMub3JnLzIwMDAvc3ZnIiBkYXRhLXR5cGU9IjEiIGlkPSJGeFN5bWJvbDAtMDUwIiByb2xlPSJwcmVzZW50YXRpb24iIGNsYXNzPSIiIHZpZXdCb3g9IjAgMCAxOCAxOCI+PGc+PHBhdGggZmlsbD0idXJsKCNkNjJmNzQ4My03YjEwLTRjN2QtOTQ1Zi1hOGVhY2Q4ZDMwOWYpIiBkPSJNNi44IDcuNGEuMzM4LjMzOCAwIDAgMSAuMjc3LS4zMzNsMy40MTQtLjYzdi0yLjI5YS40NTguNDU4IDAgMCAwLS4zMS0uNDMzTDUuMjM5IDIuMDI3IDAgMi45OTR2Ny4xNDJsNS4yMzkgMS4xMjQgMS41Ni0uNjI5WiIvPjxwYXRoIGZpbGw9Im5vbmUiIGQ9Im01LjQzNSAxMS4xMzkgNC43MjItMS45YS40NTkuNDU5IDAgMCAwIC4yODctLjQyNVY0LjE5YS40NTcuNDU3IDAgMCAwLS4zMTEtLjQzM0w1LjM2NyAyLjEzOWEuNDM3LjQzNyAwIDAgMC0uMjIxLS4wMTdMLjM3MyAzYS4zNTIuMzUyIDAgMCAwLS4yODguMzQ2djYuNDdhLjM1LjM1IDAgMCAwIC4yNzkuMzQ0bDQuODE0IDFhLjQ0My40NDMgMCAwIDAgLjI1Ny0uMDIxWiIvPjxwYXRoIGZpbGw9IiMzNDFhNmUiIGQ9Ik0wIDIuOTk0djcuMTQybDUuMjkxIDEuMTI0VjIuMDI3Wk0yLjIyMyA5LjYuNzQgOS4zVjMuNzkxbDEuNDgzLS4yNDhabTIuMzEyLjQxNC0xLjctLjI3NVYzLjQ1MmwxLjctLjNaIi8+PHBhdGggZmlsbD0ibm9uZSIgZD0ibTEyLjk0NSAxNS44NTIgNC43MjItMS45YS40NTcuNDU3IDAgMCAwIC4yODctLjQyNVY4LjlhLjQ1Ny40NTcgMCAwIDAtLjMxMS0uNDMzbC00Ljc2Ni0xLjYxNmEuNDQ1LjQ0NSAwIDAgMC0uMjItLjAxNmwtNC43NzQuODczYS4zNTEuMzUxIDAgMCAwLS4yODguMzQ1djYuNDc2YS4zNTEuMzUxIDAgMCAwIC4yOC4zNDRsNC44MTMgMWEuNDQzLjQ0MyAwIDAgMCAuMjU3LS4wMjFaIi8+PHBhdGggZmlsbD0idXJsKCNkNjJmNzQ4My03YjEwLTRjN2QtOTQ1Zi1hOGVhY2Q4ZDMwYTApIiBkPSJtMTIuNzUgNi43NC01LjI0Ljk2N3Y3LjE0Mmw1LjI0IDEuMTI0IDQuOTYzLTJhLjQ1Ny40NTcgMCAwIDAgLjI4Ny0uNDI3VjguODZhLjQ1OC40NTggMCAwIDAtLjMxLS40MzNaIi8+PHBhdGggZmlsbD0iIzM0MWE2ZSIgZD0iTTcuNTEgNy43MDd2Ny4xNDJsNS4yOSAxLjEyNFY2Ljc0Wm0yLjIyMyA2LjYwNS0xLjQ4My0uM1Y4LjVsMS40ODMtLjI0OFptMi4zMTIuNDE0LTEuNy0uMjc1VjguMTY1bDEuNy0uM1oiLz48L2c+PGRlZnM+JiN4YTs8bGluZWFyR3JhZGllbnQgZ3JhZGllbnRVbml0cz0idXNlclNwYWNlT25Vc2UiIHkyPSI2LjY0NCIgeDI9IjEwLjQ5IiB5MT0iNi42NDQiIGlkPSJkNjJmNzQ4My03YjEwLTRjN2QtOTQ1Zi1hOGVhY2Q4ZDMwOWYiPjxzdG9wIHN0b3AtY29sb3I9IiNiNzdhZjQiIG9mZnNldD0iMCIvPjxzdG9wIHN0b3AtY29sb3I9IiM3NzNhZGMiIG9mZnNldD0iMSIvPjwvbGluZWFyR3JhZGllbnQ+JiN4YTs8bGluZWFyR3JhZGllbnQgZ3JhZGllbnRVbml0cz0idXNlclNwYWNlT25Vc2UiIHkyPSIxMS4zNTYiIHgyPSIxOCIgeTE9IjExLjM1NiIgeDE9IjcuNTEiIGlkPSJkNjJmNzQ4My03YjEwLTRjN2QtOTQ1Zi1hOGVhY2Q4ZDMwYTAiPjxzdG9wIHN0b3AtY29sb3I9IiNiNzdhZjQiIG9mZnNldD0iMCIvPjxzdG9wIHN0b3AtY29sb3I9IiM3NzNhZGMiIG9mZnNldD0iMSIvPjwvbGluZWFyR3JhZGllbnQ+JiN4YTs8L2RlZnM+JiN4YTs8L3N2Zz4=;" vertex="1" parent="lnF6oPftVDVQoWuEvHUH-7">
          <mxGeometry width="40" height="40" as="geometry" />
        </mxCell>
        <mxCell id="lnF6oPftVDVQoWuEvHUH-10" value="" style="group" vertex="1" connectable="0" parent="1">
          <mxGeometry x="500" y="320" width="90.53999999999996" height="40" as="geometry" />
        </mxCell>
        <mxCell id="lnF6oPftVDVQoWuEvHUH-11" value="api1" style="text;html=1;align=left;verticalAlign=middle;whiteSpace=wrap;rounded=0;labelBackgroundColor=none;fontColor=#1890f1;fontSize=12;fontFamily=segoe ui;" vertex="1" parent="lnF6oPftVDVQoWuEvHUH-10">
          <mxGeometry x="50" y="10" width="40.54" height="20" as="geometry" />
        </mxCell>
        <mxCell id="lnF6oPftVDVQoWuEvHUH-12" value="" style="shape=image;verticalLabelPosition=bottom;labelBackgroundColor=default;verticalAlign=top;aspect=fixed;imageAspect=0;image=data:image/svg+xml,PHN2ZyB4bWxuczp4bGluaz0iaHR0cDovL3d3dy53My5vcmcvMTk5OS94bGluayIgeG1sbnM9Imh0dHA6Ly93d3cudzMub3JnLzIwMDAvc3ZnIiBkYXRhLXR5cGU9IjEiIGlkPSJGeFN5bWJvbDAtMDUwIiByb2xlPSJwcmVzZW50YXRpb24iIGNsYXNzPSIiIHZpZXdCb3g9IjAgMCAxOCAxOCI+PGc+PHBhdGggZmlsbD0idXJsKCNkNjJmNzQ4My03YjEwLTRjN2QtOTQ1Zi1hOGVhY2Q4ZDMwOWYpIiBkPSJNNi44IDcuNGEuMzM4LjMzOCAwIDAgMSAuMjc3LS4zMzNsMy40MTQtLjYzdi0yLjI5YS40NTguNDU4IDAgMCAwLS4zMS0uNDMzTDUuMjM5IDIuMDI3IDAgMi45OTR2Ny4xNDJsNS4yMzkgMS4xMjQgMS41Ni0uNjI5WiIvPjxwYXRoIGZpbGw9Im5vbmUiIGQ9Im01LjQzNSAxMS4xMzkgNC43MjItMS45YS40NTkuNDU5IDAgMCAwIC4yODctLjQyNVY0LjE5YS40NTcuNDU3IDAgMCAwLS4zMTEtLjQzM0w1LjM2NyAyLjEzOWEuNDM3LjQzNyAwIDAgMC0uMjIxLS4wMTdMLjM3MyAzYS4zNTIuMzUyIDAgMCAwLS4yODguMzQ2djYuNDdhLjM1LjM1IDAgMCAwIC4yNzkuMzQ0bDQuODE0IDFhLjQ0My40NDMgMCAwIDAgLjI1Ny0uMDIxWiIvPjxwYXRoIGZpbGw9IiMzNDFhNmUiIGQ9Ik0wIDIuOTk0djcuMTQybDUuMjkxIDEuMTI0VjIuMDI3Wk0yLjIyMyA5LjYuNzQgOS4zVjMuNzkxbDEuNDgzLS4yNDhabTIuMzEyLjQxNC0xLjctLjI3NVYzLjQ1MmwxLjctLjNaIi8+PHBhdGggZmlsbD0ibm9uZSIgZD0ibTEyLjk0NSAxNS44NTIgNC43MjItMS45YS40NTcuNDU3IDAgMCAwIC4yODctLjQyNVY4LjlhLjQ1Ny40NTcgMCAwIDAtLjMxMS0uNDMzbC00Ljc2Ni0xLjYxNmEuNDQ1LjQ0NSAwIDAgMC0uMjItLjAxNmwtNC43NzQuODczYS4zNTEuMzUxIDAgMCAwLS4yODguMzQ1djYuNDc2YS4zNTEuMzUxIDAgMCAwIC4yOC4zNDRsNC44MTMgMWEuNDQzLjQ0MyAwIDAgMCAuMjU3LS4wMjFaIi8+PHBhdGggZmlsbD0idXJsKCNkNjJmNzQ4My03YjEwLTRjN2QtOTQ1Zi1hOGVhY2Q4ZDMwYTApIiBkPSJtMTIuNzUgNi43NC01LjI0Ljk2N3Y3LjE0Mmw1LjI0IDEuMTI0IDQuOTYzLTJhLjQ1Ny40NTcgMCAwIDAgLjI4Ny0uNDI3VjguODZhLjQ1OC40NTggMCAwIDAtLjMxLS40MzNaIi8+PHBhdGggZmlsbD0iIzM0MWE2ZSIgZD0iTTcuNTEgNy43MDd2Ny4xNDJsNS4yOSAxLjEyNFY2Ljc0Wm0yLjIyMyA2LjYwNS0xLjQ4My0uM1Y4LjVsMS40ODMtLjI0OFptMi4zMTIuNDE0LTEuNy0uMjc1VjguMTY1bDEuNy0uM1oiLz48L2c+PGRlZnM+JiN4YTs8bGluZWFyR3JhZGllbnQgZ3JhZGllbnRVbml0cz0idXNlclNwYWNlT25Vc2UiIHkyPSI2LjY0NCIgeDI9IjEwLjQ5IiB5MT0iNi42NDQiIGlkPSJkNjJmNzQ4My03YjEwLTRjN2QtOTQ1Zi1hOGVhY2Q4ZDMwOWYiPjxzdG9wIHN0b3AtY29sb3I9IiNiNzdhZjQiIG9mZnNldD0iMCIvPjxzdG9wIHN0b3AtY29sb3I9IiM3NzNhZGMiIG9mZnNldD0iMSIvPjwvbGluZWFyR3JhZGllbnQ+JiN4YTs8bGluZWFyR3JhZGllbnQgZ3JhZGllbnRVbml0cz0idXNlclNwYWNlT25Vc2UiIHkyPSIxMS4zNTYiIHgyPSIxOCIgeTE9IjExLjM1NiIgeDE9IjcuNTEiIGlkPSJkNjJmNzQ4My03YjEwLTRjN2QtOTQ1Zi1hOGVhY2Q4ZDMwYTAiPjxzdG9wIHN0b3AtY29sb3I9IiNiNzdhZjQiIG9mZnNldD0iMCIvPjxzdG9wIHN0b3AtY29sb3I9IiM3NzNhZGMiIG9mZnNldD0iMSIvPjwvbGluZWFyR3JhZGllbnQ+JiN4YTs8L2RlZnM+JiN4YTs8L3N2Zz4=;" vertex="1" parent="lnF6oPftVDVQoWuEvHUH-10">
          <mxGeometry width="40" height="40" as="geometry" />
        </mxCell>
        <mxCell id="lnF6oPftVDVQoWuEvHUH-13" value="After" style="text;html=1;align=center;verticalAlign=middle;whiteSpace=wrap;rounded=0;fillColor=#d5e8d4;strokeColor=#82b366;fontSize=14;fontStyle=1" vertex="1" parent="1">
          <mxGeometry x="80" y="270" width="520" height="30" as="geometry" />
        </mxCell>
        <mxCell id="lnF6oPftVDVQoWuEvHUH-14" value="" style="rounded=1;whiteSpace=wrap;html=1;strokeColor=#1890f1;dashed=1;fontColor=#8a8585;" vertex="1" parent="1">
          <mxGeometry x="240" y="520" width="231" height="110" as="geometry" />
        </mxCell>
        <mxCell id="lnF6oPftVDVQoWuEvHUH-15" value="api.litware.com" style="text;html=1;align=center;verticalAlign=middle;whiteSpace=wrap;rounded=0;labelBackgroundColor=none;fontColor=#000000;fontSize=14;fontFamily=segoe ui;fontStyle=0" vertex="1" parent="1">
          <mxGeometry x="241" y="500" width="240" height="20" as="geometry" />
        </mxCell>
        <mxCell id="lnF6oPftVDVQoWuEvHUH-16" value="Azure API Management" style="text;html=1;align=center;verticalAlign=middle;whiteSpace=wrap;rounded=0;labelBackgroundColor=none;fontColor=#1890f1;fontSize=12;fontFamily=segoe ui;" vertex="1" parent="1">
          <mxGeometry x="240" y="630" width="230" height="20" as="geometry" />
        </mxCell>
        <mxCell id="lnF6oPftVDVQoWuEvHUH-17" value="" style="shape=image;verticalLabelPosition=bottom;labelBackgroundColor=default;verticalAlign=top;aspect=fixed;imageAspect=0;image=data:image/svg+xml,PHN2ZyB4bWxucz0iaHR0cDovL3d3dy53My5vcmcvMjAwMC9zdmciIHhtbG5zOnhsaW5rPSJodHRwOi8vd3d3LnczLm9yZy8xOTk5L3hsaW5rIiBkYXRhLXR5cGU9IjMwMSIgaWQ9IkZ4U3ltYm9sMC0wNWMiIHJvbGU9InByZXNlbnRhdGlvbiIgY2xhc3M9IiIgZGF0YS1pc2xvZ289InRydWUiIHZpZXdCb3g9IjAgMCAxOCAxOCI+PGc+PHBhdGggZmlsbD0idXJsKCM4MGFkNTgxNC0yN2FhLTRmY2EtOTg1ZS02MWU2M2VlNjI3OTMpIiBkPSJNMTQuMTggNS44OWE0Ljg1IDQuODUgMCAwIDAtNC45NS00LjcxIDUgNSAwIDAgMC00Ljc1IDMuMjlBNC42MSA0LjYxIDAgMCAwIC41IDlhNC42NyA0LjY3IDAgMCAwIDQuNzkgNC41IDMgMyAwIDAgMCAuNDIgMGgxLjJhMS40NyAxLjQ3IDAgMCAxLS4xMS0uNTYgMS41MSAxLjUxIDAgMCAxIC4yLS43M0g1LjI5QTMuNDEgMy40MSAwIDAgMSAxLjc3IDlhMy4zMyAzLjMzIDAgMCAxIDIuOTEtMy4yN2wuNzYtLjEyLjI1LS43M2EzLjczIDMuNzMgMCAwIDEgMy41NC0yLjQzIDMuNiAzLjYgMCAwIDEgMy42OCAzLjQ1VjdsMS4wOS4xNWEyLjU5IDIuNTkgMCAwIDEgMi4yNiAyLjQ5IDIuNjMgMi42MyAwIDAgMS0yLjYyIDIuNTRoLTEuMjNBMy45MiAzLjkyIDAgMCAwIDguNTQgOWEuNjQuNjQgMCAxIDAgMCAxLjI3IDIuNjUgMi42NSAwIDAgMSAwIDUuMjkuNjQuNjQgMCAxIDAgMCAxLjI3IDMuOTIgMy45MiAwIDAgMCAzLjg3LTMuMzRoMS4wNWEuNjQuNjQgMCAwIDAgLjIgMCAzLjkxIDMuOTEgMCAwIDAgMy44NC0zLjg1IDMuODYgMy44NiAwIDAgMC0zLjMyLTMuNzV6Ii8+PHJlY3QgZmlsbD0idXJsKCMxOGJkYThkOS1lZDM2LTQyODYtYmQ3Ny05OGNiNzA1NDc4OTApIiByeD0iMS41NCIgaGVpZ2h0PSIzLjEyIiB3aWR0aD0iMy4xMiIgeT0iMTEuMzUiIHg9IjYuOCIvPjwvZz48ZGVmcz4mI3hhOzxsaW5lYXJHcmFkaWVudCBncmFkaWVudFVuaXRzPSJ1c2VyU3BhY2VPblVzZSIgeTI9IjEuMTgiIHgyPSI5IiB5MT0iMTYuODIiIHgxPSI5IiBpZD0iODBhZDU4MTQtMjdhYS00ZmNhLTk4NWUtNjFlNjNlZTYyNzkzIj48c3RvcCBzdG9wLWNvbG9yPSIjMTk4YWIzIiBvZmZzZXQ9IjAiLz48c3RvcCBzdG9wLWNvbG9yPSIjMWY5ZGM0IiBvZmZzZXQ9Ii4wOSIvPjxzdG9wIHN0b3AtY29sb3I9IiMyOGI1ZDkiIG9mZnNldD0iLjI0Ii8+PHN0b3Agc3RvcC1jb2xvcj0iIzJkYzZlOSIgb2Zmc2V0PSIuNCIvPjxzdG9wIHN0b3AtY29sb3I9IiMzMWQxZjIiIG9mZnNldD0iLjU3Ii8+PHN0b3Agc3RvcC1jb2xvcj0iIzMyZDRmNSIgb2Zmc2V0PSIuNzgiLz48L2xpbmVhckdyYWRpZW50PiYjeGE7PGxpbmVhckdyYWRpZW50IGdyYWRpZW50VW5pdHM9InVzZXJTcGFjZU9uVXNlIiB5Mj0iMTQuNDYiIHgyPSI4LjM2IiB5MT0iMTEuMzUiIHgxPSI4LjM2IiBpZD0iMThiZGE4ZDktZWQzNi00Mjg2LWJkNzctOThjYjcwNTQ3ODkwIj48c3RvcCBzdG9wLWNvbG9yPSIjYzY5YWViIiBvZmZzZXQ9IjAiLz48c3RvcCBzdG9wLWNvbG9yPSIjNmY0YmIyIiBvZmZzZXQ9IjEiLz48L2xpbmVhckdyYWRpZW50PiYjeGE7PC9kZWZzPiYjeGE7PC9zdmc+;imageBackground=default;" vertex="1" parent="1">
          <mxGeometry x="320.5" y="540" width="70" height="70" as="geometry" />
        </mxCell>
        <mxCell id="lnF6oPftVDVQoWuEvHUH-18" style="rounded=0;orthogonalLoop=1;jettySize=auto;html=1;entryX=0.009;entryY=0.639;entryDx=0;entryDy=0;entryPerimeter=0;" edge="1" parent="1" source="lnF6oPftVDVQoWuEvHUH-19" target="lnF6oPftVDVQoWuEvHUH-1">
          <mxGeometry relative="1" as="geometry" />
        </mxCell>
        <mxCell id="lnF6oPftVDVQoWuEvHUH-19" value="Litware&lt;br&gt;API User" style="shape=umlActor;verticalLabelPosition=bottom;verticalAlign=top;html=1;outlineConnect=0;" vertex="1" parent="1">
          <mxGeometry x="100" y="525" width="30" height="60" as="geometry" />
        </mxCell>
        <mxCell id="lnF6oPftVDVQoWuEvHUH-20" value="" style="group" vertex="1" connectable="0" parent="1">
          <mxGeometry x="500" y="440" width="90.53999999999996" height="40" as="geometry" />
        </mxCell>
        <mxCell id="lnF6oPftVDVQoWuEvHUH-21" value="api3" style="text;html=1;align=left;verticalAlign=middle;whiteSpace=wrap;rounded=0;labelBackgroundColor=none;fontColor=#1890f1;fontSize=12;fontFamily=segoe ui;" vertex="1" parent="lnF6oPftVDVQoWuEvHUH-20">
          <mxGeometry x="50" y="10" width="40.54" height="20" as="geometry" />
        </mxCell>
        <mxCell id="lnF6oPftVDVQoWuEvHUH-22" value="" style="shape=image;verticalLabelPosition=bottom;labelBackgroundColor=default;verticalAlign=top;aspect=fixed;imageAspect=0;image=data:image/svg+xml,PHN2ZyB4bWxuczp4bGluaz0iaHR0cDovL3d3dy53My5vcmcvMTk5OS94bGluayIgeG1sbnM9Imh0dHA6Ly93d3cudzMub3JnLzIwMDAvc3ZnIiBkYXRhLXR5cGU9IjEiIGlkPSJGeFN5bWJvbDAtMDUwIiByb2xlPSJwcmVzZW50YXRpb24iIGNsYXNzPSIiIHZpZXdCb3g9IjAgMCAxOCAxOCI+PGc+PHBhdGggZmlsbD0idXJsKCNkNjJmNzQ4My03YjEwLTRjN2QtOTQ1Zi1hOGVhY2Q4ZDMwOWYpIiBkPSJNNi44IDcuNGEuMzM4LjMzOCAwIDAgMSAuMjc3LS4zMzNsMy40MTQtLjYzdi0yLjI5YS40NTguNDU4IDAgMCAwLS4zMS0uNDMzTDUuMjM5IDIuMDI3IDAgMi45OTR2Ny4xNDJsNS4yMzkgMS4xMjQgMS41Ni0uNjI5WiIvPjxwYXRoIGZpbGw9Im5vbmUiIGQ9Im01LjQzNSAxMS4xMzkgNC43MjItMS45YS40NTkuNDU5IDAgMCAwIC4yODctLjQyNVY0LjE5YS40NTcuNDU3IDAgMCAwLS4zMTEtLjQzM0w1LjM2NyAyLjEzOWEuNDM3LjQzNyAwIDAgMC0uMjIxLS4wMTdMLjM3MyAzYS4zNTIuMzUyIDAgMCAwLS4yODguMzQ2djYuNDdhLjM1LjM1IDAgMCAwIC4yNzkuMzQ0bDQuODE0IDFhLjQ0My40NDMgMCAwIDAgLjI1Ny0uMDIxWiIvPjxwYXRoIGZpbGw9IiMzNDFhNmUiIGQ9Ik0wIDIuOTk0djcuMTQybDUuMjkxIDEuMTI0VjIuMDI3Wk0yLjIyMyA5LjYuNzQgOS4zVjMuNzkxbDEuNDgzLS4yNDhabTIuMzEyLjQxNC0xLjctLjI3NVYzLjQ1MmwxLjctLjNaIi8+PHBhdGggZmlsbD0ibm9uZSIgZD0ibTEyLjk0NSAxNS44NTIgNC43MjItMS45YS40NTcuNDU3IDAgMCAwIC4yODctLjQyNVY4LjlhLjQ1Ny40NTcgMCAwIDAtLjMxMS0uNDMzbC00Ljc2Ni0xLjYxNmEuNDQ1LjQ0NSAwIDAgMC0uMjItLjAxNmwtNC43NzQuODczYS4zNTEuMzUxIDAgMCAwLS4yODguMzQ1djYuNDc2YS4zNTEuMzUxIDAgMCAwIC4yOC4zNDRsNC44MTMgMWEuNDQzLjQ0MyAwIDAgMCAuMjU3LS4wMjFaIi8+PHBhdGggZmlsbD0idXJsKCNkNjJmNzQ4My03YjEwLTRjN2QtOTQ1Zi1hOGVhY2Q4ZDMwYTApIiBkPSJtMTIuNzUgNi43NC01LjI0Ljk2N3Y3LjE0Mmw1LjI0IDEuMTI0IDQuOTYzLTJhLjQ1Ny40NTcgMCAwIDAgLjI4Ny0uNDI3VjguODZhLjQ1OC40NTggMCAwIDAtLjMxLS40MzNaIi8+PHBhdGggZmlsbD0iIzM0MWE2ZSIgZD0iTTcuNTEgNy43MDd2Ny4xNDJsNS4yOSAxLjEyNFY2Ljc0Wm0yLjIyMyA2LjYwNS0xLjQ4My0uM1Y4LjVsMS40ODMtLjI0OFptMi4zMTIuNDE0LTEuNy0uMjc1VjguMTY1bDEuNy0uM1oiLz48L2c+PGRlZnM+JiN4YTs8bGluZWFyR3JhZGllbnQgZ3JhZGllbnRVbml0cz0idXNlclNwYWNlT25Vc2UiIHkyPSI2LjY0NCIgeDI9IjEwLjQ5IiB5MT0iNi42NDQiIGlkPSJkNjJmNzQ4My03YjEwLTRjN2QtOTQ1Zi1hOGVhY2Q4ZDMwOWYiPjxzdG9wIHN0b3AtY29sb3I9IiNiNzdhZjQiIG9mZnNldD0iMCIvPjxzdG9wIHN0b3AtY29sb3I9IiM3NzNhZGMiIG9mZnNldD0iMSIvPjwvbGluZWFyR3JhZGllbnQ+JiN4YTs8bGluZWFyR3JhZGllbnQgZ3JhZGllbnRVbml0cz0idXNlclNwYWNlT25Vc2UiIHkyPSIxMS4zNTYiIHgyPSIxOCIgeTE9IjExLjM1NiIgeDE9IjcuNTEiIGlkPSJkNjJmNzQ4My03YjEwLTRjN2QtOTQ1Zi1hOGVhY2Q4ZDMwYTAiPjxzdG9wIHN0b3AtY29sb3I9IiNiNzdhZjQiIG9mZnNldD0iMCIvPjxzdG9wIHN0b3AtY29sb3I9IiM3NzNhZGMiIG9mZnNldD0iMSIvPjwvbGluZWFyR3JhZGllbnQ+JiN4YTs8L2RlZnM+JiN4YTs8L3N2Zz4=;" vertex="1" parent="lnF6oPftVDVQoWuEvHUH-20">
          <mxGeometry width="40" height="40" as="geometry" />
        </mxCell>
        <mxCell id="lnF6oPftVDVQoWuEvHUH-23" value="" style="group" vertex="1" connectable="0" parent="1">
          <mxGeometry x="500" y="400" width="90.53999999999996" height="40" as="geometry" />
        </mxCell>
        <mxCell id="lnF6oPftVDVQoWuEvHUH-24" value="api3" style="text;html=1;align=left;verticalAlign=middle;whiteSpace=wrap;rounded=0;labelBackgroundColor=none;fontColor=#1890f1;fontSize=12;fontFamily=segoe ui;" vertex="1" parent="lnF6oPftVDVQoWuEvHUH-23">
          <mxGeometry x="50" y="10" width="40.54" height="20" as="geometry" />
        </mxCell>
        <mxCell id="lnF6oPftVDVQoWuEvHUH-25" value="" style="shape=image;verticalLabelPosition=bottom;labelBackgroundColor=default;verticalAlign=top;aspect=fixed;imageAspect=0;image=data:image/svg+xml,PHN2ZyB4bWxuczp4bGluaz0iaHR0cDovL3d3dy53My5vcmcvMTk5OS94bGluayIgeG1sbnM9Imh0dHA6Ly93d3cudzMub3JnLzIwMDAvc3ZnIiBkYXRhLXR5cGU9IjEiIGlkPSJGeFN5bWJvbDAtMDUwIiByb2xlPSJwcmVzZW50YXRpb24iIGNsYXNzPSIiIHZpZXdCb3g9IjAgMCAxOCAxOCI+PGc+PHBhdGggZmlsbD0idXJsKCNkNjJmNzQ4My03YjEwLTRjN2QtOTQ1Zi1hOGVhY2Q4ZDMwOWYpIiBkPSJNNi44IDcuNGEuMzM4LjMzOCAwIDAgMSAuMjc3LS4zMzNsMy40MTQtLjYzdi0yLjI5YS40NTguNDU4IDAgMCAwLS4zMS0uNDMzTDUuMjM5IDIuMDI3IDAgMi45OTR2Ny4xNDJsNS4yMzkgMS4xMjQgMS41Ni0uNjI5WiIvPjxwYXRoIGZpbGw9Im5vbmUiIGQ9Im01LjQzNSAxMS4xMzkgNC43MjItMS45YS40NTkuNDU5IDAgMCAwIC4yODctLjQyNVY0LjE5YS40NTcuNDU3IDAgMCAwLS4zMTEtLjQzM0w1LjM2NyAyLjEzOWEuNDM3LjQzNyAwIDAgMC0uMjIxLS4wMTdMLjM3MyAzYS4zNTIuMzUyIDAgMCAwLS4yODguMzQ2djYuNDdhLjM1LjM1IDAgMCAwIC4yNzkuMzQ0bDQuODE0IDFhLjQ0My40NDMgMCAwIDAgLjI1Ny0uMDIxWiIvPjxwYXRoIGZpbGw9IiMzNDFhNmUiIGQ9Ik0wIDIuOTk0djcuMTQybDUuMjkxIDEuMTI0VjIuMDI3Wk0yLjIyMyA5LjYuNzQgOS4zVjMuNzkxbDEuNDgzLS4yNDhabTIuMzEyLjQxNC0xLjctLjI3NVYzLjQ1MmwxLjctLjNaIi8+PHBhdGggZmlsbD0ibm9uZSIgZD0ibTEyLjk0NSAxNS44NTIgNC43MjItMS45YS40NTcuNDU3IDAgMCAwIC4yODctLjQyNVY4LjlhLjQ1Ny40NTcgMCAwIDAtLjMxMS0uNDMzbC00Ljc2Ni0xLjYxNmEuNDQ1LjQ0NSAwIDAgMC0uMjItLjAxNmwtNC43NzQuODczYS4zNTEuMzUxIDAgMCAwLS4yODguMzQ1djYuNDc2YS4zNTEuMzUxIDAgMCAwIC4yOC4zNDRsNC44MTMgMWEuNDQzLjQ0MyAwIDAgMCAuMjU3LS4wMjFaIi8+PHBhdGggZmlsbD0idXJsKCNkNjJmNzQ4My03YjEwLTRjN2QtOTQ1Zi1hOGVhY2Q4ZDMwYTApIiBkPSJtMTIuNzUgNi43NC01LjI0Ljk2N3Y3LjE0Mmw1LjI0IDEuMTI0IDQuOTYzLTJhLjQ1Ny40NTcgMCAwIDAgLjI4Ny0uNDI3VjguODZhLjQ1OC40NTggMCAwIDAtLjMxLS40MzNaIi8+PHBhdGggZmlsbD0iIzM0MWE2ZSIgZD0iTTcuNTEgNy43MDd2Ny4xNDJsNS4yOSAxLjEyNFY2Ljc0Wm0yLjIyMyA2LjYwNS0xLjQ4My0uM1Y4LjVsMS40ODMtLjI0OFptMi4zMTIuNDE0LTEuNy0uMjc1VjguMTY1bDEuNy0uM1oiLz48L2c+PGRlZnM+JiN4YTs8bGluZWFyR3JhZGllbnQgZ3JhZGllbnRVbml0cz0idXNlclNwYWNlT25Vc2UiIHkyPSI2LjY0NCIgeDI9IjEwLjQ5IiB5MT0iNi42NDQiIGlkPSJkNjJmNzQ4My03YjEwLTRjN2QtOTQ1Zi1hOGVhY2Q4ZDMwOWYiPjxzdG9wIHN0b3AtY29sb3I9IiNiNzdhZjQiIG9mZnNldD0iMCIvPjxzdG9wIHN0b3AtY29sb3I9IiM3NzNhZGMiIG9mZnNldD0iMSIvPjwvbGluZWFyR3JhZGllbnQ+JiN4YTs8bGluZWFyR3JhZGllbnQgZ3JhZGllbnRVbml0cz0idXNlclNwYWNlT25Vc2UiIHkyPSIxMS4zNTYiIHgyPSIxOCIgeTE9IjExLjM1NiIgeDE9IjcuNTEiIGlkPSJkNjJmNzQ4My03YjEwLTRjN2QtOTQ1Zi1hOGVhY2Q4ZDMwYTAiPjxzdG9wIHN0b3AtY29sb3I9IiNiNzdhZjQiIG9mZnNldD0iMCIvPjxzdG9wIHN0b3AtY29sb3I9IiM3NzNhZGMiIG9mZnNldD0iMSIvPjwvbGluZWFyR3JhZGllbnQ+JiN4YTs8L2RlZnM+JiN4YTs8L3N2Zz4=;" vertex="1" parent="lnF6oPftVDVQoWuEvHUH-23">
          <mxGeometry width="40" height="40" as="geometry" />
        </mxCell>
        <mxCell id="lnF6oPftVDVQoWuEvHUH-26" value="" style="rounded=0;whiteSpace=wrap;html=1;fillColor=default;strokeColor=none;opacity=70;" vertex="1" parent="1">
          <mxGeometry x="220" y="500" width="260" height="160" as="geometry" />
        </mxCell>
      </root>
    </mxGraphModel>
  </diagram>
</mxfile>
